<svg xmlns="http://www.w3.org/2000/svg" width="368.147" height="58.618" viewBox="0 0 368.147 58.618">
  <g id="Group_8" data-name="Group 8" transform="translate(-57.401 -82.43)">
    <g id="Group_4" data-name="Group 4">
      <path id="Path_6" data-name="Path 6" d="M57.4,91.591h6.47V104.22h.124c1.555-2.489,5.6-4.479,9.829-4.479a15.865,15.865,0,0,1,0,31.727c-4.23,0-8.274-1.99-9.829-4.479h-.124v3.67H57.4Zm15.863,14.246c-5.412,0-9.393,4.169-9.393,9.768s3.981,9.766,9.393,9.766,9.394-4.168,9.394-9.766S78.677,105.837,73.264,105.837Z" fill="#333"/>
      <path id="Path_7" data-name="Path 7" d="M95.474,100.549h6.47v16.859a7.285,7.285,0,1,0,14.557,0V100.549h6.47v17.42c0,8.46-6.6,13.5-13.748,13.5s-13.749-5.039-13.749-13.5Z" fill="#333"/>
      <path id="Path_8" data-name="Path 8" d="M142.753,106.646H129.44v-6.1h24.138l-14.619,24.014h14.246v6.1H128.2Z" fill="#333"/>
      <path id="Path_9" data-name="Path 9" d="M170.374,106.646H157.061v-6.1H181.2L166.58,124.563h14.246v6.1H155.817Z" fill="#333"/>
      <path id="Path_10" data-name="Path 10" d="M187.98,121.7a13.942,13.942,0,0,0,9.456,4.417c3.732,0,5.972-2.115,5.972-3.795,0-1.991-1.555-3.049-3.919-3.484l-3.671-.684c-8.46-1.555-10.824-4.293-10.824-8.585,0-5.1,4.292-9.829,11.82-9.829,4.168,0,7.838,1.244,11.944,4.168l-3.67,4.541c-3.173-2.675-5.972-3.359-8.088-3.359-2.8,0-5.536,1.369-5.536,3.795,0,1.8,1.43,2.737,3.919,3.173l6.532,1.244c5.35.995,7.963,3.546,7.963,8.025,0,4.416-3.609,10.14-12.753,10.14a20.248,20.248,0,0,1-13.562-5.288Z" fill="#333"/>
      <path id="Path_11" data-name="Path 11" d="M221.7,104.22h.125a12.342,12.342,0,0,1,9.891-4.479c9.891,0,15.615,8.087,15.615,15.864,0,7.4-6.159,15.863-15.926,15.863-4.479,0-7.9-1.929-9.58-4.479H221.7v14.059h-6.47v-40.5h6.47Zm9.207,1.617a9.769,9.769,0,1,0,9.581,9.768A9.683,9.683,0,0,0,230.9,105.837Z" fill="#333"/>
      <path id="Path_12" data-name="Path 12" d="M253.3,100.549h6.1v3.3h.125a6.438,6.438,0,0,1,5.911-4.106,6.636,6.636,0,0,1,3.545.933l-2.3,6.408a4.807,4.807,0,0,0-2.427-.872,4.435,4.435,0,0,0-4.479,4.542v19.907H253.3Z" fill="#333"/>
      <path id="Path_13" data-name="Path 13" d="M286.149,99.741c10.514,0,16.611,7.9,16.611,15.864s-6.1,15.863-16.611,15.863-16.61-7.9-16.61-15.863S275.636,99.741,286.149,99.741Zm0,25.63a9.767,9.767,0,1,0-9.767-9.766A9.589,9.589,0,0,0,286.149,125.371Z" fill="#333"/>
      <path id="Path_14" data-name="Path 14" d="M308.731,100.549H315.2v16.859a7.285,7.285,0,1,0,14.557,0V100.549h6.469v17.42c0,8.46-6.593,13.5-13.748,13.5s-13.749-5.039-13.749-13.5Z" fill="#333"/>
      <path id="Path_15" data-name="Path 15" d="M341.7,100.549h3.671V92.586l6.47-1.8v9.766h5.163v6.1h-5.163v11.882c0,3.235.747,4.728,2.675,5.848l3.484,1.99-2.862,5.1c-6.657-3.173-9.767-5.475-9.767-11.758V106.646H341.7Z" fill="#333"/>
    </g>
    <path id="Path_16" data-name="Path 16" d="M425.548,131.856c0,1.361-12.046,2.463-26.9,2.463s-26.9-1.1-26.9-2.463,12.046-2.463,26.9-2.463S425.548,130.495,425.548,131.856Z" fill="#231f20" opacity="0.1"/>
    <g id="Group_6" data-name="Group 6">
      <g id="Group_5" data-name="Group 5">
        <path id="Path_17" data-name="Path 17" d="M384.716,102.579v-4h27.508v4a13.591,13.591,0,0,1-13.754,13.365h0v-2.552a11.042,11.042,0,0,0,11.2-10.813h0v-1.453h-22.4v1.453a11.043,11.043,0,0,0,11.2,10.813h0v2.552a13.589,13.589,0,0,1-13.754-13.365Z" fill="#82bc47"/>
      </g>
    </g>
    <rect id="Rectangle_1" data-name="Rectangle 1" width="5.217" height="27.214" transform="translate(396.018 107.008)" fill="#82bc47"/>
    <path id="Path_18" data-name="Path 18" d="M407.367,91.086a9.022,9.022,0,0,0-18.029,0v3.127h18.029Z" fill="#698569"/>
    <path id="Path_19" data-name="Path 19" d="M389.337,102.077a9.022,9.022,0,0,0,18.029,0V95.821H389.337Z" fill="#698569"/>
    <g id="Group_7" data-name="Group 7">
      <path id="Path_20" data-name="Path 20" d="M419.118,128.5c-6.236,6.236-17.022,5.562-17.022,5.562s-.673-10.786,5.563-17.021,17.025-5.566,17.025-5.566S425.354,122.266,419.118,128.5Z" fill="#82bc47"/>
      <path id="Path_21" data-name="Path 21" d="M378.04,128.5c6.235,6.236,17.022,5.562,17.022,5.562s.672-10.786-5.563-17.021-17.024-5.566-17.024-5.566S371.8,122.266,378.04,128.5Z" fill="#82bc47"/>
    </g>
  </g>
</svg>
