<svg xmlns="http://www.w3.org/2000/svg" xmlns:xlink="http://www.w3.org/1999/xlink" width="967" height="816" viewBox="0 0 967 816"><defs><clipPath id="b"><rect width="967" height="816"/></clipPath></defs><g id="a" clip-path="url(#b)"><rect width="967" height="816" fill="#fff"/><g transform="translate(32 -26)"><path d="M102.225,1.334A7.414,7.414,0,0,0,99.838.692,38.719,38.719,0,0,0,92.374,0,137.709,137.709,0,0,0,69.3,2.074c-4.8.83-10.61,3.622-15.388,2.106-8.324-2.642-16.738-2.512-24.635,1.26-7.221,3.449-12.7,10-15.9,17.078a43.407,43.407,0,0,0-2.995,7.652c-.237.542-.465,1.088-.67,1.642-.582,1.573-1.1,3.173-1.59,4.777-.207.684-.729,2.194-.11,2.486a45.46,45.46,0,0,0-2.6,5.652C3.286,50.378.962,56.578.215,62.568a27.912,27.912,0,0,0-.03,6.671c.127,1.1.074,3.307.819,4.142,1.58,1.772,2.392-.709,2.214-1.89C1.858,62.485,4.485,54.027,7.6,45.561a53.276,53.276,0,0,1,9.027-15.019,37.906,37.906,0,0,1,10.328-9,161.472,161.472,0,0,1,15.728-7.8c3.5-1.588,7.009-3.134,10.61-4.5a10.575,10.575,0,0,1,2.948-1.088c1.877-.007,4.537,1.379,6.351,1.894,5.964,1.7,12,3.867,18.168,4.733A23.43,23.43,0,0,0,92.113,13.4a10.628,10.628,0,0,0,1.787-.974,25.936,25.936,0,0,0,7.6-4.3,30.324,30.324,0,0,0,3.563-3.839,2.011,2.011,0,0,0,.47-1.264c.244-.128.406-.277.443-.451.269-1.286-2.184-1.31-3.754-1.233" transform="translate(769.779 229.855)" fill="#89c5cc"/><path d="M11.933,0C9.99,0,8.054.039,6.115.139,4.636.216,2.377-.089,1.126.828c-1.3.953-1.21,2.9-1.007,4.28,1.073,7.282,3.693,13.739,9.174,18.9,8.439,7.944,18.113,11.981,29.561,13.778,8.042,1.263,15.465-.491,21.385-6.181a88.518,88.518,0,0,1,9.253,25.752,61.405,61.405,0,0,1,.917,13.236c-.092,2.872-.251,5.736-.56,8.594-.134,1.242-.77,3.122-.282,4.3a1.974,1.974,0,0,0,3.375.336c.722-.978.59-2.9.738-4.056.246-1.923.474-3.847.637-5.778.265-3.126.46-6.262.446-9.4A69.774,69.774,0,0,0,71,43.758C66.865,30.916,60.158,19.5,49.726,10.55,43.311,5.043,35.97,2.814,27.641,1.617A111.241,111.241,0,0,0,11.933,0" transform="translate(73.46 361.983) rotate(-39)" fill="#dde3e9"/><path d="M81.472,180.815c-1.575-12.542-3.242-25.012-6.294-37.31-1.8-7.247-4.1-14.342-6.2-21.506q.282,1.348.5,2.71c-.729-2.137-2.25-4.181-3.126-6.31-.976-2.375-1.761-4.842-2.507-7.294-1.456-4.786-2.83-9.58-4.468-14.311-1.826-5.271-3.928-10.454-5.887-15.679A127.246,127.246,0,0,0,48.105,67.8c-1.18-2.306-2.237-4.784-3.4-7.135-.388-.787-3.714-9.576-3.689-9.576.55,0,2.613,3.907,2.954,4.481,1,1.676,1.847,3.421,2.7,5.168a23.014,23.014,0,0,1,1.88-6.015c.285-.589,2.285-4.932,2.936-4.932.325,0-2.681,8.2-3.061,8.922a14.855,14.855,0,0,0-1.088,1.949c-.325,1-.158.754.111,1.66A47.616,47.616,0,0,0,49.724,67.2a34.728,34.728,0,0,0,2.205,5.126C54.252,76.868,55.9,82.4,57.671,87.3a32.055,32.055,0,0,1,1.949-6.988c.216-.538,1.934-5.525,2.429-5.525.557,0-1.576,7.988-1.865,8.678-.538,1.282-1.384,2.522-1.832,3.827-.491,1.432.372,2.721.921,4.185,2.022,5.388,3.794,10.83,5.414,16.345,9.406-4.12,11.276-16.244,11.89-25.185A62.468,62.468,0,0,0,74.458,63.38c-2.087-8.343-5.6-16.4-9.324-24.151A86.4,86.4,0,0,0,47.626,15.05,92.388,92.388,0,0,0,35.22,5.139a26.4,26.4,0,0,0-6.8-3.5A24.612,24.612,0,0,0,24.995.8C24.112.644,22.311-.175,21.58.034,15.6,1.687,11.112,4.437,7.63,9.548a44.722,44.722,0,0,0-6.48,16.3A51.867,51.867,0,0,0,.665,44.9,117.757,117.757,0,0,0,4.357,59.215c5.095,16.753,14.025,34.713,30.05,43.9a48.771,48.771,0,0,0,16.85,5.636c1.392.217,2.783.424,4.192.5.95.054,4.072-.577,4.76-.167.942.561,1.483,3.746,1.894,4.9,3.12,8.777,5.91,17.653,8.442,26.608,2.693,9.528,4.833,19.148,6.615,28.876.758,4.138,1.5,8.268,2.125,12.428.147.968,0,4.012.94,4.867a1.139,1.139,0,0,0,1.8-.343c.618-1.151-.389-4.328-.55-5.612" transform="matrix(0.799, -0.602, 0.602, 0.799, 1.349, 199.882)" fill="#c1dee2"/><path d="M85.98.66A47.063,47.063,0,0,0,75.329.033,66.182,66.182,0,0,0,26.489,23.2c-10.138,12-12.926,26.92-14.928,42-.2,1.5-.284,2.985-.4,4.486-.024.322-.06.609-.1.88A1.937,1.937,0,0,0,10.332,73,100.261,100.261,0,0,0,5.869,84.706C2.162,96.526-1.608,108.571.714,121a173.656,173.656,0,0,1,3.049-20.562c.079-.386.163-.769.252-1.151.009-.04.017-.081.027-.121a44.965,44.965,0,0,1,1.875-6.026c.008-.022.016-.043.024-.064.1-.259.208-.516.314-.774.219-.533.444-1.065.682-1.594q.121-.27.232-.546c1.112-2.726,1.582-5.8,2.578-8.618q.358-.962.749-1.916l.047-.112c.706-1.71,1.485-3.4,2.31-5.071a6.244,6.244,0,0,0,1.074-1.931,12.073,12.073,0,0,0,.891-1.722q.728-1.409,1.458-2.816l-.044.016q.734-1.35,1.467-2.689l.323-.589.524-.938c1.632-2.921,3.363-5.783,5.16-8.61.641-1.009,2.174-2.455,2.468-3.588.011-.042.013-.081.02-.122A64.29,64.29,0,0,1,39.967,36.924c-.651.7-2.034,3.091-2.4,3.564-1.119,1.447-2.334,2.795-3.554,4.158A88.517,88.517,0,0,0,27.8,52.274,144.959,144.959,0,0,0,18.519,67.51c-.027.031-.056.06-.082.091C17.017,69.352,16.123,72,15.1,74c4.046-1.874,8.521-3.1,12.674-4.759a104.134,104.134,0,0,0,12.059-5.676A134.574,134.574,0,0,0,55.25,53.743,61.078,61.078,0,0,0,69.7,40.477c4.912-5.934,9.414-11.919,12.2-19.124a57.426,57.426,0,0,0,3.082-10.967c.028-.163.064-.339.1-.523a35.925,35.925,0,0,0,1.726-3.958c.778-2.14,2.614-4.494-.83-5.246" transform="translate(773.865 277.283)" fill="#69a1ac"/><path d="M53.677,82c.221,0,.463-.17.72-.5.593-.772.118-3.281-.138-4.629-.046-.24-.085-.447-.107-.587a29,29,0,0,0-.767-3.508,101.182,101.182,0,0,0-3.734-10.3c-.511-1.255-1.046-2.555-1.59-3.866-.1-.244-.188-.423-.258-.568-.25-.519-.25-.519.258-1.073l.09-.1a7.037,7.037,0,0,1,.925-.8,8.618,8.618,0,0,0,.778-.647,17.431,17.431,0,0,0,4.253-7.046,17.684,17.684,0,0,0,.77-7.707A30.3,30.3,0,0,0,52.9,33.112a60.645,60.645,0,0,0-6.152-11.888,54.813,54.813,0,0,0-8.732-10.263c-3.551-3.223-8.292-6-14.5-8.479A30.708,30.708,0,0,0,14.249.313C13.8.282,13.342.266,12.878.266A25.156,25.156,0,0,0,9.8.468C9.51.5,9.208.563,8.917.62A9.077,9.077,0,0,1,7.665.805l-.2.011C7.328.824,7.22.83,7.125.83,6.742.83,6.59.719,6.107.244A.7.7,0,0,0,5.645,0a.416.416,0,0,0-.374.319,1.144,1.144,0,0,0,.314,1.2A8.554,8.554,0,0,0,1.667,4.979,12.334,12.334,0,0,0,.13,9.91,35.6,35.6,0,0,0,.974,20.5,48.528,48.528,0,0,0,4.4,31.063a55.578,55.578,0,0,0,5.532,9.453,79.906,79.906,0,0,0,15.64,15.85,22.847,22.847,0,0,0,10.506,4.8,12.244,12.244,0,0,0,2,.166,13.419,13.419,0,0,0,4.2-.7c.105-.035.24-.074.4-.119.64-.185,1.607-.464,1.846-.863.214-.359.016-.669-.235-1.062-.074-.116-.15-.235-.222-.366q-.415-.753-.828-1.506c-.727-1.324-1.479-2.694-2.232-4.032-.119-.212-.245-.49-.378-.786a5.134,5.134,0,0,0-1.147-1.863.707.707,0,0,0-.19-.018,1.483,1.483,0,0,1-.6-.1c-.127-.081-.147-.311-.161-.463-.007-.077-.012-.137-.029-.147a6.522,6.522,0,0,0-2.274-.522c-.383-.045-.745-.087-1.031-.148-.789-.169-1.719-.38-2.638-.667A29.266,29.266,0,0,1,29.79,46.94c-.192-.082-.469-.241-.762-.41a5.243,5.243,0,0,0-1.552-.712A25.35,25.35,0,0,1,33.4,46.879a23.094,23.094,0,0,1,3.091,1.076c.121.052.322.163.554.292a5.139,5.139,0,0,0,1.62.7.264.264,0,0,0,.135-.03,60.263,60.263,0,0,0-4.122-5.869c-.768-.971-1.581-2.019-2.314-3.1-.047-.07-.164-.28-.311-.545a8.135,8.135,0,0,0-1.29-1.982c.468,0,1.484,1.1,2.092,1.75.176.19.328.353.424.445A28.275,28.275,0,0,1,35.512,42a54.1,54.1,0,0,1,3.313,4.492c1.468,2.193,2.757,4.479,3.953,6.634.275.5.572,1,.859,1.5a29.671,29.671,0,0,1,2.141,4.152.252.252,0,0,1,.149-.063c.16,0,.236.258.31.507a2.663,2.663,0,0,0,.084.254c.388.931.767,1.842,1.14,2.749.787,1.915,1.416,3.5,1.981,4.977l.03.079c.662,1.736,1.347,3.531,1.9,5.332a30.508,30.508,0,0,1,1.138,5.17c.088.7.149,1.406.182,2.1C52.716,80.445,53,82,53.677,82ZM50.46,49.348a18.932,18.932,0,0,1-3,5c.7-1.036,1.3-1.987,1.843-2.907.123-.208.356-.643.583-1.064C50.168,49.853,50.434,49.358,50.46,49.348ZM37.095,34.774c.318,0,.658,2.847.693,3.32a13.873,13.873,0,0,1-.547,4.673l0,.007,0-.007a17.9,17.9,0,0,0-.142-2.243c-.2-2.234-.472-5.294-.1-5.7A.125.125,0,0,1,37.095,34.774Z" transform="matrix(0.53, -0.848, 0.848, 0.53, 61.365, 307.222)" fill="#89c5cc"/><g transform="translate(49.33 416.965)" opacity="0.6"><path d="M836.975,170.225c12.206,76.083-283.8,125.71-538.584,91.076S-73.271,91.422,48.306,19.357,824.77,94.141,836.975,170.225Z" transform="translate(0 0)" fill="#dde3e9"/></g><g transform="translate(184.554 98.519)"><rect width="159" height="302" rx="8" fill="#f2f2f2"/><circle cx="15" cy="15" r="15" transform="translate(64 253)" fill="#fff"/><g transform="translate(64 16)"><circle cx="2" cy="2" r="2" fill="#fff"/><rect width="21" height="4" rx="2" transform="translate(9)" fill="#fff"/></g><g transform="translate(14 28)"><rect width="131" height="54" rx="4" fill="#fff"/><g transform="translate(39 16.2)"><rect width="73" height="8.1" rx="3" fill="#dde3e9"/><rect width="49" height="8.1" rx="3" transform="translate(0 13.5)" fill="#dde3e9"/></g><circle cx="12" cy="12" r="12" transform="translate(9 15)" fill="#c5cfd6"/><g transform="translate(0 62)"><rect width="131" height="42" rx="4" fill="#fff"/><g transform="translate(39 12.6)"><rect width="73" height="6.3" rx="3" fill="#dde3e9"/><rect width="49" height="6.3" rx="3" transform="translate(0 10.5)" fill="#dde3e9"/></g><circle cx="12" cy="12" r="12" transform="translate(9 9)" fill="#c5cfd6"/></g><g transform="translate(0 112)"><rect width="131" height="42" rx="4" fill="#fff"/><g transform="translate(39 12.6)"><rect width="73" height="6.3" rx="3" fill="#dde3e9"/><rect width="49" height="6.3" rx="3" transform="translate(0 10.5)" fill="#dde3e9"/></g><circle cx="12" cy="12" r="12" transform="translate(9 9)" fill="#afb9c5"/></g><g transform="translate(0 162)"><rect width="131" height="42" rx="4" fill="#fff"/><g transform="translate(39 12.6)"><rect width="73" height="6.3" rx="3" fill="#dde3e9"/><rect width="49" height="6.3" rx="3" transform="translate(0 10.5)" fill="#dde3e9"/></g><circle cx="12" cy="12" r="12" transform="translate(9 9)" fill="#c5cfd6"/></g></g></g><g transform="translate(213.366 132.222)"><g transform="translate(0 218)"><path d="M8.14,0C6.815,0,5.494.027,4.171.1,3.162.148,1.621-.061.768.568-.119,1.221-.058,2.557.081,3.5.813,8.493,2.6,12.919,6.339,16.456,12.1,21.9,18.695,24.668,26.5,25.9c5.486.866,10.55-.336,14.588-4.237A60.868,60.868,0,0,1,47.4,39.315a42.292,42.292,0,0,1,.626,9.073c-.063,1.968-.171,3.932-.382,5.891-.091.851-.526,2.14-.192,2.944a1.343,1.343,0,0,0,2.3.231c.493-.67.4-1.987.5-2.78.168-1.318.323-2.637.434-3.961.181-2.143.314-4.292.3-6.444a48.036,48.036,0,0,0-2.567-14.274c-2.82-8.8-7.4-16.625-14.512-22.763-4.376-3.774-9.383-5.3-15.065-6.123A75.529,75.529,0,0,0,8.14,0" transform="translate(4)" fill="#89c5cc"/><path d="M32.571,0C18.272,0,8.642,11.524,4.089,23.5c-1.716,4.515-2.119,9.472-2.78,14.213-.212,1.521-.134,3.839-.751,5.195-.224.491-.738.668-.492,1.338a1.086,1.086,0,0,0,.879.734c.9.166,2.171-.814,2.942-1.2,6.4-3.208,10.6-8.168,14.027-14.236a60.584,60.584,0,0,0,5.544-11.8,40.769,40.769,0,0,0,1.484-7.8,29.682,29.682,0,0,0,.2-3.122,6.3,6.3,0,0,0-.829-2.468c4.771-1.806,10.156-2.3,14.989-.427a19.209,19.209,0,0,1,10.262,9.279,17.7,17.7,0,0,1,1.26,3.42A11.772,11.772,0,0,0,51.4,19.1c.893,1.687,2.771.559,2.59-1.011A20.315,20.315,0,0,0,47.775,6.263,22.349,22.349,0,0,0,32.571,0" transform="translate(0 35)" fill="#89c5cc"/></g><rect width="159" height="302" rx="8" transform="translate(48)" fill="#dde3e9"/><circle cx="15" cy="15" r="15" transform="translate(112 253)" fill="#fff"/><g transform="translate(112 16)"><circle cx="2" cy="2" r="2" fill="#fff"/><rect width="21" height="4" rx="2" transform="translate(9)" fill="#fff"/></g><g transform="translate(62 28)"><rect width="131" height="54" rx="4" fill="#fff"/><g transform="translate(9 16.2)"><rect width="73" height="8.1" rx="3" fill="#dde3e9"/><rect width="49" height="8.1" rx="3" transform="translate(0 13.5)" fill="#dde3e9"/></g><g transform="translate(110 20)"><circle cx="7" cy="7" r="7" fill="#dde3e9"/><circle cx="3" cy="3" r="3" transform="translate(4 4)" fill="#f2f2f2"/></g><g transform="translate(0 62)"><rect width="131" height="42" rx="4" fill="#fff"/><g transform="translate(39 12.6)"><rect width="73" height="6.3" rx="3" fill="#dde3e9"/><rect width="49" height="6.3" rx="3" transform="translate(0 10.5)" fill="#dde3e9"/></g><circle cx="12" cy="12" r="12" transform="translate(9 9)" fill="#c5cfd6"/></g><g transform="translate(0 112)"><rect width="131" height="42" rx="4" fill="#fff"/><g transform="translate(9 12.6)"><rect width="73" height="6.3" rx="3" fill="#dde3e9"/><rect width="49" height="6.3" rx="3" transform="translate(0 10.5)" fill="#afb9c5"/></g><g transform="translate(110 14)"><circle cx="7" cy="7" r="7" fill="#dde3e9"/><circle cx="3" cy="3" r="3" transform="translate(4 4)" fill="#f2f2f2"/></g></g><g transform="translate(0 162)"><rect width="131" height="42" rx="4" fill="#fff"/><g transform="translate(39 12.6)"><rect width="73" height="6.3" rx="3" fill="#dde3e9"/><rect width="49" height="6.3" rx="3" transform="translate(0 10.5)" fill="#dde3e9"/></g><circle cx="12" cy="12" r="12" transform="translate(9 9)" fill="#c5cfd6"/></g></g></g><g transform="translate(400.667 169.587)"><rect width="335" height="346" rx="8" fill="#f2f2f2"/><rect width="70" height="81" rx="8" transform="translate(249 43)" fill="#fff"/><g transform="translate(259 58)"><circle cx="16" cy="16" r="16" transform="translate(9)" fill="#dde3e9"/><rect width="50" height="6" rx="3" transform="translate(0 36)" fill="#dde3e9"/><rect width="34" height="6" rx="3" transform="translate(8 46)" fill="#dde3e9"/></g><path d="M8,0H327a8,8,0,0,1,8,8V27a0,0,0,0,1,0,0H0a0,0,0,0,1,0,0V8A8,8,0,0,1,8,0Z" fill="#c5cfd6"/><g transform="translate(9 10)"><circle cx="4" cy="4" r="4" fill="#f2f2f2"/><circle cx="4" cy="4" r="4" transform="translate(12)" fill="#f2f2f2"/><circle cx="4" cy="4" r="4" transform="translate(24)" fill="#f2f2f2"/></g><g transform="translate(249 132)"><rect width="70" height="194" rx="8" fill="#fff"/><g transform="translate(18 18)"><rect width="34" height="26" rx="4" fill="#dde3e9"/><rect width="34" height="25" rx="4" transform="translate(0 34)" fill="#afb9c5"/><rect width="34" height="25" rx="4" transform="translate(0 67)" fill="#dde3e9"/><rect width="34" height="25" rx="4" transform="translate(0 133)" fill="#dde3e9"/><rect width="34" height="25" rx="4" transform="translate(0 100)" fill="#c5cfd6"/></g></g><g transform="translate(16 44)"><rect width="225" height="47" rx="4" fill="#fff"/><g transform="translate(9 14.1)"><rect width="167" height="7.05" rx="3" fill="#dde3e9"/><rect width="112.096" height="7.05" rx="3" transform="translate(0 11.75)" fill="#dde3e9"/></g><g transform="translate(193.954 16.5)"><circle cx="7" cy="7" r="7" fill="#dde3e9"/><circle cx="3" cy="3" r="3" transform="translate(4 4)" fill="#f2f2f2"/></g><g transform="translate(0 55)"><rect width="225" height="39" rx="4" fill="#fff"/><g transform="translate(9 11.7)"><rect width="167" height="5.85" rx="2.925" fill="#dde3e9"/><rect width="112.096" height="5.85" rx="2.925" transform="translate(0 9.75)" fill="#dde3e9"/></g><g transform="translate(193.954 12.5)"><circle cx="7" cy="7" r="7" fill="#dde3e9"/><circle cx="3" cy="3" r="3" transform="translate(4 4)" fill="#f2f2f2"/></g></g><g transform="translate(0 102)"><rect width="225" height="39" rx="4" fill="#fff"/><g transform="translate(9 11.7)"><rect width="167" height="5.85" rx="2.925" fill="#dde3e9"/><rect width="112.096" height="5.85" rx="2.925" transform="translate(0 9.75)" fill="#dde3e9"/></g><g transform="translate(193.954 12.5)"><circle cx="7" cy="7" r="7" fill="#dde3e9"/><circle cx="3" cy="3" r="3" transform="translate(4 4)" fill="#afb9c5"/></g></g><g transform="translate(0 243)"><rect width="225" height="39" rx="4" fill="#fff"/><g transform="translate(9 11.7)"><rect width="167" height="5.85" rx="2.925" fill="#dde3e9"/><rect width="112.096" height="5.85" rx="2.925" transform="translate(0 9.75)" fill="#dde3e9"/></g><g transform="translate(193.954 12.5)"><circle cx="7" cy="7" r="7" fill="#dde3e9"/><circle cx="3" cy="3" r="3" transform="translate(4 4)" fill="#f2f2f2"/></g></g><g transform="translate(0 196)"><rect width="225" height="39" rx="4" fill="#fff"/><g transform="translate(9 11.7)"><rect width="167" height="5.85" rx="2.925" fill="#dde3e9"/><rect width="112.096" height="5.85" rx="2.925" transform="translate(0 9.75)" fill="#dde3e9"/></g><g transform="translate(193.954 12.5)"><circle cx="7" cy="7" r="7" fill="#dde3e9"/><circle cx="3" cy="3" r="3" transform="translate(4 4)" fill="#f2f2f2"/></g></g><g transform="translate(0 149)"><rect width="225" height="39" rx="4" fill="#fff"/><g transform="translate(9 11.7)"><rect width="167" height="5.85" rx="2.925" fill="#dde3e9"/><rect width="112.096" height="5.85" rx="2.925" transform="translate(0 9.75)" fill="#dde3e9"/></g><g transform="translate(193.954 12.5)"><circle cx="7" cy="7" r="7" fill="#dde3e9"/><circle cx="3" cy="3" r="3" transform="translate(4 4)" fill="#f2f2f2"/></g></g></g></g><path d="M127.986,3.376C124.041.7,118.8,0,114.076,0,95.64,0,78.311,6.84,63.341,17.032a118.671,118.671,0,0,0-22.019,20.1,58.867,58.867,0,0,0-9.434,14.041A48.375,48.375,0,0,0,28.46,61.991,111.159,111.159,0,0,0,26.515,75.8c-.128,1.82-1.185,11.477,1.841,11.641a4.177,4.177,0,0,0,0,.668c-6.57,10.274-10.63,22.314-14.394,33.729A229.732,229.732,0,0,0,5.87,152.063,329.391,329.391,0,0,0,.958,193.05C.791,196,.676,198.95.577,201.9q-.126,3.779-.251,7.557c-.092,2.823-.589,6.073-.14,8.88.391,2.444,2.506,2.074,2.6-.358.113-2.937.095-5.88.223-8.82q.256-5.852.538-11.7a273.592,273.592,0,0,1,15.515-79.376,185.077,185.077,0,0,1,13.474-29.74A207.372,207.372,0,0,1,49.084,64.173c5.762-7.38,11.752-14.59,18.812-20.843A144.678,144.678,0,0,1,86.4,29.722C94.631,24.5,102.843,19.4,111.755,15.391c4.633-2.084,9.353-3.95,14.021-5.95.84-.36,1.741-.709,2.549-1.126,2.7-1.39,1.808-3.483-.34-4.939" transform="translate(739.934 365.583)" fill="#c1dee2"/><path d="M-58.182,0c7.477,0,14.131.972,21.02,3.943A93.43,93.43,0,0,1-20.533,13.6c7.4,5.2,13.232,11.249,17.312,19.266,2.438,4.789,4.226,11.566,2.589,16.79-1.929,6.152-7.224,11.284-14.2,10.2-4.313-.67-8.267-3.525-11.545-6.212A43.659,43.659,0,0,1-36.028,42.27c-4.228-7-6.713-14.919-10.3-22.237-1.7-3.473-3.351-6.971-5.393-10.271a16.569,16.569,0,0,0-3.619-4.468c-.82-.65-4.278-1.774-2.956-3.233-19.39.255-36.568,15.147-40.291,33.58-.347,1.718-.618,3.45-.9,5.179-.181,1.092-.108,5.117-1.084,5.814-2.152,1.538-1.247-3.135-1.155-3.807q.358-2.608.76-5.211A43.366,43.366,0,0,1-88.315,12.683C-80.306,4.99-69.5,0-58.182,0" transform="translate(847.11 462.813)" fill="#89c5cc"/><g transform="translate(65 445)"><path d="M9.938,35.736C28.6,67.052,50.345,97.374,63.4,131.613c-.526-4.036-1.084-8.067-1.708-12.093-3.313-21.341-7.43-42.526-11.757-63.685-2.2-10.773-4.534-21.507-6.924-32.241C41.727,17.829,40.457,12.061,39.145,6.3c-.318-1.4-.591-3.832-.989-6.3C50.845,41.637,63.081,83.3,72.031,125.942q1.761,8.394,2.993,16.758c.28-1.272.556-2.544.857-3.813A246.4,246.4,0,0,1,91.4,94.374a134.951,134.951,0,0,1,10.825-19.648c2.608-3.863,8.757-8.455,11.136-12.412-13.01,23.861-17.707,53.717-25.219,79.659-1.833,6.331-3.678,12.651-5.486,18.982,11.328-22.718,28.9-41.384,53.341-49.473-29.58,19.544-47.322,53.771-59.278,88.777-.039.415-.086.83-.127,1.246,3.518-6.677,7.95-12.716,13.956-16.946,12.855-9.055,27.116-6.417,39.586,1.35-9.787-6.221-27.474-.556-35.709,5.767-5.9,4.526-10.933,10.6-15.308,16.523-1.048,1.42-2.479,3.077-3.989,4.845A218.405,218.405,0,0,1,64.672,254c.807-3.889.223-10.108.447-13.007.024-.314.044-.628.068-.941q-1.114,4.449-2.152,8.784a120.22,120.22,0,0,0,2.7-17.061q.225-3.743.451-7.487-.074-7.1-.574-14.253c-1.17-4.629-2.48-8.994-3.56-12.625a163.194,163.194,0,0,0-16.646-37.36,147.491,147.491,0,0,0-22.966-29.116c-4.78-4.717-9.783-9.21-14.716-13.765-1.784-1.647-4.972-5.7-7.729-7.806,20.08,11.071,40.749,23.047,55.4,40.884q-2.576-9.892-5.556-19.468C39.831,98.454,27.191,64.953,9.938,35.736Z" fill="#dde3e9"/><path d="M0,0C0,35.9,2.843,65,41,65S82,35.9,82,0" transform="translate(30 213)" fill="#c5cfd6"/></g><g transform="translate(670.324 61.348)"><rect width="6" height="25" rx="3" transform="translate(0 32)" fill="#dde3e9"/><rect width="6" height="41" rx="3" transform="translate(14 16)" fill="#dde3e9"/><rect width="6" height="49" rx="3" transform="translate(28 8)" fill="#dde3e9"/><rect width="6" height="41" rx="3" transform="translate(42 16)" fill="#dde3e9"/><rect width="6" height="57" rx="3" transform="translate(56)" fill="#c5cfd6"/></g><g transform="translate(75.84 437.15) rotate(180)"><path d="M0,20.256A20.191,20.191,0,0,1,20,0V20.256L6.332,35A20.073,20.073,0,0,1,0,20.256Z" transform="translate(40 40) rotate(180)" fill="#f2f2f2"/><path d="M13.8,0H34a20.014,20.014,0,0,1-5.5,13.668A20.357,20.357,0,0,1,13.8,20,20.644,20.644,0,0,1,0,14.557Z" transform="translate(34.332 20) rotate(180)" fill="#afb9c5"/><path d="M20,20H40a19.745,19.745,0,0,0-1.578-7.765A20.2,20.2,0,0,0,27.765,1.578,19.746,19.746,0,0,0,20,0V20Zm-2-2v0L10,0A18.353,18.353,0,0,0,0,10l18,8Z" transform="translate(40 40) rotate(180)" fill="#c5cfd6"/></g><g transform="translate(825.759 389.613)"><path d="M37.766,37.179A10.513,10.513,0,1,1,30.1,19.5V0a30,30,0,1,0,0,60A29.69,29.69,0,0,0,52,50.5Z" fill="#f2f2f2"/><path d="M0,0V19.5A10.5,10.5,0,0,1,10.5,30H30A30.092,30.092,0,0,0,0,0Z" transform="translate(30)" fill="#afb9c5"/><path d="M4.1,0A10.64,10.64,0,0,1,0,8.391L12.262,24A30.413,30.413,0,0,0,24,0Z" transform="translate(36 30)" fill="#c5cfd6"/></g><g transform="translate(588.631 74.129)"><path d="M29.051,28.5a8.074,8.074,0,1,1-5.9-13.554V0A23.146,23.146,0,0,0,0,23,23.146,23.146,0,0,0,23.15,46,22.873,22.873,0,0,0,40,38.718Z" fill="#f2f2f2"/><path d="M0,0V14.95A8.05,8.05,0,0,1,8.05,23H23A23.071,23.071,0,0,0,0,0Z" transform="translate(23)" fill="#afb9c5"/><path d="M3.073,0A7.98,7.98,0,0,1,0,6.293L9.2,18A22.81,22.81,0,0,0,18,0Z" transform="translate(28 23)" fill="#c5cfd6"/></g><g transform="translate(99.095 67.347)"><path d="M1.007.986C1,1,1,1.006.993,1.018c.006-.01.014-.05.014-.032" transform="translate(47 51)" fill="#c5cfd6"/><path d="M1,1a.087.087,0,0,0,0,.01C1,1,1.014.971,1,1" transform="translate(47 51)" fill="#c5cfd6"/><path d="M1.067.832c-.014.04-.032.078-.048.118.008-.02.016-.036.024-.056-.208.52-.076.182.024-.062" transform="translate(47 51)" fill="#c5cfd6"/><path d="M1.022.953,1,1.009c-.058.112.024-.056.024-.056" transform="translate(47 51)" fill="#c5cfd6"/><path d="M1,1H1V1Z" transform="translate(47 51)" fill="#c5cfd6"/><path d="M1,1S1,1,1,1,1,1,1,1" transform="translate(47 51)" fill="#c5cfd6"/><path d="M.99,1.016c-.012.024.056-.092,0,0" transform="translate(47 51)" fill="#c5cfd6"/><path d="M1,1,1,1S1,1,1,1" transform="translate(47 51)" fill="#c5cfd6"/><rect width="95" height="63" rx="4" fill="#dde3e9"/><g transform="translate(8 18)"><path d="M28,0,0,45H56Z" fill="#afb9c5"/><path d="M24.5,0,0,33H49Z" transform="translate(31 12)" fill="#c5cfd6"/></g><circle cx="9" cy="9" r="9" transform="translate(65 12)" fill="#fff"/></g><g transform="translate(845.712 640.727) rotate(180)"><path d="M0,0c0,.01.008.02.014.032C.008.027,0-.013,0,0" transform="translate(71.007 17.018) rotate(180)" fill="#c5cfd6"/><path d="M.007.013a.087.087,0,0,1,0,.01c0-.01-.018-.04,0-.01" transform="translate(71.004 17.011) rotate(180)" fill="#c5cfd6"/><path d="M0,0C.014.04.032.078.048.118.04.1.032.082.024.062.232.582.1.244,0,0" transform="translate(71.067 17.168) rotate(180)" fill="#c5cfd6"/><path d="M0,0,.024.056C.082.168,0,0,0,0" transform="translate(71.022 17.047) rotate(180)" fill="#c5cfd6"/><path d="M0,0H0V0Z" transform="translate(71 17.001) rotate(180)" fill="#c5cfd6"/><path d="M0,0S0,0,0,0,0,0,0,0" transform="translate(71.001 17.002) rotate(180)" fill="#c5cfd6"/><path d="M.022.036c.012.024-.056-.092,0,0" transform="translate(71.012 17.02) rotate(180)" fill="#c5cfd6"/><path d="M0,0,0,0S0,0,0,0" transform="translate(71.002 17.002) rotate(180)" fill="#c5cfd6"/><rect width="142" height="94" rx="4" transform="translate(142 94) rotate(180)" fill="#dde3e9"/><g transform="translate(11.671 0)"><path d="M41.055,0,82.11,67H0Z" transform="translate(82.11 67) rotate(180)" fill="#afb9c5"/><path d="M36.295,0,72.59,49.054H0Z" transform="translate(119.68 49.054) rotate(180)" fill="#c5cfd6"/></g><circle cx="13.5" cy="13.5" r="13.5" transform="translate(124 76) rotate(180)" fill="#fff"/></g></g><g transform="translate(144 263)"><g transform="translate(0 71)"><g transform="translate(83.127 7)"><g transform="translate(60.66 34.848)"><path d="M0,82.06,9.281,38.77C4.105,32.691.6,25.239,1.187,16.89,2.874-7.166,36.338-1.874,42.847,10.268s5.736,42.94-2.676,45.11c-3.355.865-10.5-1.254-17.777-5.642L26.96,82.06Z" transform="translate(0 0)" fill="#b28b67"/></g><path d="M-57.47,26.868A8.433,8.433,0,0,1-59.227,23.6a33.056,33.056,0,0,1-1.125-3.709c-.566-2.528-.571-5.436,1.231-7.4A8.476,8.476,0,0,1-53.5,10.059a10.314,10.314,0,0,1,3.982.505c1.268.417,2.362,1.249,3.591,1.765a16.09,16.09,0,0,1,1.895-7.9A7.872,7.872,0,0,1-38.174.6a11.617,11.617,0,0,1,7.141,1.439c.555.3,1.105.615,1.632.972a4.572,4.572,0,0,0,1.416.779c.577.135.862-.2,1.237-.619A9.4,9.4,0,0,1-25.29,1.858,8.585,8.585,0,0,1-17.252.475a7.469,7.469,0,0,1,3.277,2.37c.748.981,1.281,2.538,2.313,3.222.438.29.747-.094,1.146-.379.6-.427,1.17-.9,1.776-1.314A8.132,8.132,0,0,1-5.98,3.126c1.445-.335,3.442-.256,3.855,1.638a7.823,7.823,0,0,1-.014,2.189c-.069.984-.141,1.968-.226,2.951a21.321,21.321,0,0,1-.288,2.2,3.221,3.221,0,0,0-.143,1.51c.209.489,1.175.211,1.587.228a6.267,6.267,0,0,1,2.386.525A2.568,2.568,0,0,1,2.622,15.7a2.4,2.4,0,0,1,.04,1.257,3.752,3.752,0,0,0,.076,1.29c1.094-.539,4.886-1.737,5.363.225a3.071,3.071,0,0,1-.479,1.943A16.839,16.839,0,0,1,5.855,23.11a24.06,24.06,0,0,1-4.707,4.569,3.088,3.088,0,0,1,.8,5.17,3.82,3.82,0,0,1-2.807.814,6.2,6.2,0,0,0-1.16-.092,2.774,2.774,0,0,1-.526.177,15.635,15.635,0,0,1-4.3-.547,14.191,14.191,0,0,1-6.565-3.436,2.024,2.024,0,0,0-1.519-.7c-.565.006-1.119.161-1.683.175-1.493.038-2.838-.692-4.224-1.178a15.959,15.959,0,0,1-1.384,5.623c-.625,1.375-1.929,1.574-3.211,1.695-4.1.386-8.212-.045-12.315-.039,3.972.9,8.077,1.269,12.015,2.326,1.78.478.421,1.678-.34,2.51A14.47,14.47,0,0,0-28.9,45.037c-1.943-2.535-5.378-4.205-8.421-3.426-3.362.86-5.73,5.41-3.58,8.682,1.248,1.9,3.5,2.632,5.378,3.448-1.463,1.522-1.817,3.771-2.7,5.665a4.053,4.053,0,0,1-2.015,2.316,2.356,2.356,0,0,0-1.064.424c-.351.363-.435.769-.883,1.081a4.979,4.979,0,0,1-6.172-.476c-1.435-1.47-1.061-3.8.137-5.285-1.907-.8-5.382-1.819-4.624-4.792-4.133-.275-14.167-6.982-8.62-11.883-3.044-1.722-5.841-5.929-3.885-9.638,1.506-2.856,5.007-4.133,7.88-4.284" transform="translate(107.563 16.862)" fill="#191847"/></g><g transform="translate(0 211.335)"><g transform="translate(11.233 47.213)"><g transform="translate(61.783)"><path d="M31.029,0h86.783l11.371,139.391H0Z" fill="#c5cfd6"/><path d="M31.029,0H57.72L73.695,139.391H0Z" fill="rgba(0,0,0,0.1)"/></g></g><path d="M64.177,159.118c-1.124-14.221-3.214-63.45-1.123-86.237.882-9.619,1.834-18.769,2.769-26.9C45.762,82.087,12.937,134.9,12.937,134.9L0,128.985S15.239,78.744,24.991,58.047C36.123,34.422,46.561,14.19,50.953,7.063c6.91-11.209,18.939-7.3,25.3-.513,9.253-5.56,24.776,1.583,24.766,9.535-.032,23.791-21.729,135.921-22.862,143.009-.6,3.751-4.282,6.042-7.72,6.042C67.375,165.137,64.51,163.326,64.177,159.118Z" transform="translate(213.519 16.782)" fill="#b28b67"/><path d="M.028,125.713l5.723-114.1c4.139-19.729,39.213-10.564,39.2.009-.027,24-14.42,106.922-14.428,114.074Z" transform="translate(257.414 9.026) rotate(20)" fill="#1f28cf"/><g transform="translate(223.64 112.895) rotate(30)"><path d="M4.474,5.033A2,2,0,0,0,1.908,6.381L0,13.106A64.242,64.242,0,0,0,.9,21H57.3s2.2-7.268-2.538-7.848-7.87-1.047-7.87-1.047L20.68.419a1,1,0,0,0-1.332.532L17.663,5.039s-4.385,2.046-7.127,2.046Z" transform="translate(1 19)" fill="#e4e4e4"/></g><g transform="translate(271.847 141.639)"><path d="M5.025,5.616A2.246,2.246,0,0,0,2.144,7.132L0,14.691a72.264,72.264,0,0,0,1.012,8.874H64.37s2.47-8.17-2.851-8.822-8.84-1.176-8.84-1.176L23.231.43a1.123,1.123,0,0,0-1.5.6L19.842,5.623s-4.926,2.3-8.005,2.3Z" transform="translate(1.123 21.4)" fill="#e4e4e4"/></g><path d="M191.832,40.955c0,29.865-14.173,99.527-14.182,106.1l-30.494.023s6.695-93.238,4.748-94.243-79.814,7.78-103.167,7.78C15.061,60.618,1.13,39.367,0,0H66.711c13.583,1.454,84.433,15.755,110.745,20.671C188.72,22.775,191.832,32.728,191.832,40.955Z" transform="translate(125.813 0)" fill="#2b44ff"/></g><g transform="translate(41 101)"><path d="M1.227,86.783c-1.116-.688-2.338-3.28.615-5.3C9.2,76.433,19.8,67.6,21.236,64.7,24.166,58.752,34.145.808,34.145.808l20.9.083s-19.354,62.48-20.9,66.3c-2.314,5.735,2.583,14.468,4.676,19.162-3.3,1.477-4.834-.409-6.512-2.294-1.789-2.01-3.745-4.019-8.184-1.954-5.68,2.643-10.377,6.838-15.975,6.837A12.989,12.989,0,0,1,1.227,86.783ZM181.155,30.53l-31.587-13.1L156.618,0l31.9,23.423A85.839,85.839,0,0,1,210.2,32.137c1.372,1.249,3.029,3.779-2.658,3.343s-11.687-.642-12.472,1.3,2.657,4.259,1.07,6.876a.754.754,0,0,1-.692.373Q192.645,44.027,181.155,30.53Z" transform="translate(34.163 92.211)" fill="#b28b67"/><path d="M0,2.231,8.485,0c34.377,24.814,52.145,76.707,93.78,101.378l-8.407,12.513C25.158,111.423,2.652,48.2,0,2.231Z" transform="matrix(0.996, 0.087, -0.087, 0.996, 127.889, 3.109)" fill="#e87613"/><path d="M0,114H76.511c3.5,0,2.837-5.048,2.332-7.6C73.011,77,50.241,45.312,50.241,3.461L28.172,0C9.917,29.358,3.6,65.5,0,114Z" transform="translate(90)" fill="#dde3e9"/><path d="M.133,159.513c-1.765-57.079,19.846-101,37.932-127.487a11.605,11.605,0,0,1-9.932-6.1C20.067,11.37,22.98,3.356,31.6.722S47.909,3.514,61.644,3.514a10.705,10.705,0,0,1,1.638.117l7.324.418s29.733,100.77,16.4,134.465H26.53a191.9,191.9,0,0,1-9.988,21Z" transform="translate(54.867 -3.513)" fill="#ff9b21"/><path d="M22.348,34.5H-.255C3.89,24.547,8.463,12.251,13.336-2.044,15.365,15.573,18.4,27.868,22.347,34.5Z" transform="translate(81.652 100.498)" fill="rgba(0,0,0,0.1)"/></g></g><g transform="translate(494.336 -32.235)"><g transform="matrix(0.995, -0.105, 0.105, 0.995, 0.865, 61.919)"><path d="M0,0,9.295,43.324C4.112,49.408.6,56.866,1.189,65.221,2.879,89.3,36.392,84,42.911,71.849s5.745-42.974-2.68-45.145c-3.36-.866-10.518,1.255-17.8,5.647L27,0Z" transform="translate(47.25 82.125) rotate(180)" fill="#b28b67"/></g><path d="M16.1,39.021c3.559-.584,13.14-.985,14.907-.985,1.129,0,2.353.258,3.022-.779.548-.849.347-2.285.51-3.27.19-1.145.459-2.274.732-3.4a34.583,34.583,0,0,1,3.591-9.122A28.039,28.039,0,0,1,52.157,9.431c6.292-2.7,13.411-3.324,20.178-2.775,7.242.587,13.8,2.978,20.635,5.227a43.247,43.247,0,0,0,20.156,1.941c6.866-1.055,12.054-4.776,17.846-8.308C136.9,1.9,143.677-.466,150.686.078c6.543.508,12.573,3.209,17.983,6.818,5.062,3.377,9.239,7.439,11.6,13.156,2.537,6.15,2.534,12.9-1.637,18.337-6.046,7.879-17.272,9.916-26.61,9.714a50.842,50.842,0,0,1-15.807-2.9c-6.8-2.392-12.679-6.447-19.041-9.737a49.549,49.549,0,0,0-9.308-3.725c-3.139-.887-6.232-1.293-9.074.6-3.007,2.006-5.7,3.977-9.141,5.233a29.482,29.482,0,0,1-10.311,1.852c-6.841-.053-13.584-2.184-20.228-3.612C53.69,34.656,47.893,33.5,42.369,34.615c-2.3.467-5.672,1.431-6.5,3.826,14.011,2.539,19.514,19.867,15.564,32.588C49.3,77.9,36.482,85.921,31.5,82.312c-3.157-2.287-1.24-5.289,0-7.27,2.375-3.8,3.188-8.67-1.207-11.312-3.791-2.279-7.777,3.133-7.852,3.127C21.4,66.774,12.4,61.682,6.193,54.252.073,54.615-.855,50.58.606,47.28S11.187,39.828,16.1,39.021Z" transform="matrix(0.995, -0.105, 0.105, 0.995, 0, 19.024)" fill="#191847"/></g><g transform="translate(448.367 218)"><path d="M78.805,0,36.533,138.467,16.056,256.223H0L21.638,0Z" transform="translate(43.761 0)" fill="#997659"/><path d="M63.688,0c-2.871,76.026.508,115.241,1.15,122.148s9.442,51.694,30.274,136.394L78,252.655C45.081,174.973,33.862,134.6,30.086,124.4S16.282,72.732,0,0Z" transform="translate(74.001 0)" fill="#b28b67"/><g transform="translate(106.593 245.738)"><path d="M59.918,5.623A2.246,2.246,0,0,1,62.8,7.141l2.144,7.568a72.44,72.44,0,0,1-1.012,8.885H.572s-2.47-8.181,2.851-8.833,8.84-1.178,8.84-1.178L41.712.43a1.123,1.123,0,0,1,1.5.6l1.893,4.6s4.926,2.3,8.005,2.3Z" transform="translate(0 -0.332)" fill="#e4e4e4"/></g><g transform="translate(0 245.738)"><path d="M59.918,5.623A2.246,2.246,0,0,1,62.8,7.141l2.144,7.568a72.44,72.44,0,0,1-1.012,8.885H.572s-2.47-8.181,2.851-8.833,8.84-1.178,8.84-1.178L41.712.43a1.123,1.123,0,0,1,1.5.6l1.893,4.6s4.926,2.3,8.005,2.3Z" transform="translate(0 -0.332)" fill="#e4e4e4"/></g><path d="M72.871,0,54.9,70.547H0L8.185,0Z" transform="translate(55.312 0)" fill="#69a1ac"/><path d="M68.429,0C77.3,26.642,71.8,70.547,71.8,70.547H15.778L.373,0Z" transform="translate(69.864)" fill="#89c5cc"/></g><g transform="translate(372.151 109.514) rotate(-8)"><path d="M1.38,2.428C.125,3.2-1.25,6.111,2.072,8.385,10.35,14.051,22.278,23.967,23.89,27.231c3.3,6.677,19.768,92.6,19.768,92.6l24.634-.092S40.149,28.719,38.413,24.427c-2.6-6.44,2.906-16.248,5.261-21.519-3.713-1.659-5.438.459-7.326,2.576C34.335,7.742,32.135,10,27.141,7.679,20.751,4.71,15.467,0,9.169,0A14.631,14.631,0,0,0,1.38,2.428ZM222.051,53.96l-33.139,19.5L199.5,91.744l31.868-31.033q13.909-5.923,22.793-13.079c1.331-1.6,2.781-4.676-3.485-3.3s-12.919,2.54-14.1.505,2.293-5.152.116-7.814a.824.824,0,0,0-.668-.318Q233.025,36.7,222.051,53.96Z" transform="translate(280.252 195.577) rotate(180)" fill="#b28b67"/><path d="M0,124.291,9.546,126.8C29.525,74.265,111.175,44.409,117.752,24.692c2.412-7.23-2.586-11.429.361-13.438L106.322.948c-2.35,2.3-6.5-2.645-16.289-.3S5.58,60.506,0,124.291Z" transform="matrix(-0.996, 0.087, -0.087, -0.996, 172.361, 129.806)" fill="#db2721"/><path d="M76.361,169l-.494-7.068C57.559,147.868,12.182,105.842.358,27.61-1.733,13.771,6.068,10.754,4.945,4.559L21.493,0c0,4.559,12.561,6.441,15.8,18.277,1.82,6.648,4.484,14.951,7.668,24.187.3-12.232,2.625-23.483,7.687-32.8C65.28-13.583,138.271,11.911,145.9,35.627c9.236,28.722-32.232,46.983-31.1,118.591l.841,12.035a4,4,0,0,1-3.711,4.269l-31.3,2.189q-.142.01-.283.01A4,4,0,0,1,76.361,169Z" transform="translate(259.959 167.375) rotate(180)" fill="#ff4133"/></g></g></g></svg>