<?xml version="1.0" encoding="UTF-8"?>
<svg width="210px" height="129px" viewBox="0 0 210 129" version="1.1" xmlns="http://www.w3.org/2000/svg" xmlns:xlink="http://www.w3.org/1999/xlink">
    <!-- Generator: Sketch 58 (84663) - https://sketch.com -->
    <title>Logos/Lockup/Vertical/Logo Outlined Black@1x</title>
    <desc>Created with Sketch.</desc>
    <g id="Logos-&amp;-Colors" stroke="none" stroke-width="1" fill="none" fill-rule="evenodd">
        <g id="Logos" transform="translate(-1697.000000, -723.000000)" fill="#0F0F09">
            <g id="On-White" transform="translate(454.000000, 528.000000)">
                <g id="Lockups-Vert-Black" transform="translate(1243.000000, 0.000000)">
                    <g id="Logos/Lockup/Vertical/Logo-Outlined-Black" transform="translate(0.000000, 195.000000)">
                        <g id="LOGO">
                            <g id="Simplecast" transform="translate(0.000091, 100.787790)">
                                <path d="M11.9980603,4.35983916 C8.9937931,4.35983916 7.59439655,5.17082517 7.59439655,6.50863636 C7.59439655,7.75804196 8.56926724,8.20909091 10.2420259,8.40394406 L17.897069,9.30153147 C22.3043534,9.81753147 24.8786638,11.6397692 24.8786638,15.8633916 C24.8786638,21.6602727 19.9391379,23.0837832 12.3103448,23.0837832 C5.09612069,23.0837832 0.243491379,21.5998322 6.21724894e-14,15.1471259 L6.96801724,15.1471259 C7.14543103,18.0446643 9.41469828,18.6265175 12.5646983,18.6265175 C15.9093103,18.6265175 17.6617241,17.8489091 17.6553879,16.2756503 C17.6490517,14.7511049 16.3519397,14.2684825 14.5506466,14.042958 L7.61340517,13.1715315 C3.21788793,12.623958 0.575689655,10.946958 0.575689655,6.87308392 C0.575689655,1.58137762 5.50163793,-3.01980663e-14 12.1981034,-3.01980663e-14 C18.8312069,-3.01980663e-14 23.9264224,1.52454545 24.1454741,7.20505594 L17.1783621,7.20505594 C17.0317241,5.00664336 14.930819,4.35983916 11.9980603,4.35983916" id="Fill-1"></path>
                                <path d="M27.4058147,22.4153287 L33.4080129,22.4153287 L33.4080129,5.98090909 L27.4058147,5.98090909 L27.4058147,22.4153287 Z M27.3433578,3.86729371 L33.4686595,3.86729371 L33.4686595,0.242664336 L27.3433578,0.242664336 L27.3433578,3.86729371 Z" id="Fill-3"></path>
                                <path d="M42.488431,8.11888112 L42.6586034,8.11888112 C44.1611897,6.30927273 46.8223966,5.56053147 49.3034741,5.56053147 C51.9864052,5.56053147 54.1687759,6.1901958 55.293,8.15586713 C57.0083017,6.29213287 59.7274397,5.56053147 62.5316638,5.56053147 C66.312569,5.56053147 69.3150259,7.49462937 69.3150259,11.8111678 L69.3150259,22.4153287 L63.3110172,22.4153287 L63.3110172,13.3113566 C63.3110172,11.1842098 62.0003276,10.3425524 59.9890345,10.3425524 C58.1759741,10.3425524 55.9592069,11.1815035 55.9592069,14.1881958 L55.9592069,22.4153287 L49.9570086,22.4153287 L49.9570086,13.3113566 C49.9570086,11.1842098 48.6445086,10.3425524 46.6341207,10.3425524 C44.8201552,10.3425524 42.6051983,11.1815035 42.6051983,14.1881958 L42.6051983,22.4153287 L36.6011897,22.4153287 L36.6011897,5.98090909 L42.488431,5.98090909 L42.488431,8.11888112 Z" id="Fill-5"></path>
                                <path d="M83.1495905,9.95744685 C80.0222198,9.95744685 78.3186853,11.6317406 78.3186853,14.3073629 C78.3186853,16.9829853 80.0222198,18.6581811 83.1495905,18.6581811 C86.2344181,18.6581811 87.8592026,17.1372441 87.8592026,14.3064608 C87.8592026,11.4774818 86.2344181,9.95654476 83.1495905,9.95654476 L83.1495905,9.95744685 Z M78.5069612,20.7528524 L78.5069612,27.9966986 L72.5029526,27.9966986 L72.5029526,5.9809993 L78.390194,5.9809993 L78.390194,8.0864958 L78.5603664,8.0864958 C79.9525216,6.51233497 82.0932543,5.56062168 84.832306,5.56062168 C90.4335129,5.56062168 94.1048922,8.65571958 94.1048922,14.3064608 C94.1048922,19.9581042 90.4335129,23.0541042 84.832306,23.0541042 C82.0932543,23.0541042 80.0448491,22.1258455 78.6771336,20.7528524 L78.5069612,20.7528524 Z" id="Fill-6"></path>
                                <polygon id="Fill-7" points="96.6415474 22.4144266 102.644651 22.4144266 102.644651 0.363545455 96.6415474 0.363545455"></polygon>
                                <path d="M116.099043,9.27825734 C113.636974,9.27825734 112.125336,10.1397608 111.590379,11.9962783 L120.608612,11.9962783 C120.073655,10.1397608 118.562017,9.27825734 116.099948,9.27825734 L116.099043,9.27825734 Z M127.037147,14.1973972 C127.037147,14.5925161 127.006371,15.2537538 126.95025,15.6723273 L111.43831,15.6723273 C111.769603,18.0322154 113.341888,19.1165371 116.13706,19.1165371 C119.25719,19.1165371 120.088138,17.835558 120.283655,17.3159497 L126.804517,17.3159497 C126.578224,20.0817818 124.32525,23.0541944 116.13706,23.0541944 C108.847707,23.0541944 105.16275,19.7768727 105.16275,14.1973972 C105.16275,8.61972587 108.847707,5.3424042 116.099948,5.3424042 C123.351284,5.3424042 127.036241,8.61972587 127.036241,14.1973972 L127.037147,14.1973972 Z" id="Fill-8"></path>
                                <path d="M144.093129,16.034249 L150.705414,16.034249 C150.210284,20.0810601 147.393388,23.0525706 139.676793,23.0525706 C132.557612,23.0525706 128.872655,19.776151 128.872655,14.2038923 C128.872655,8.61178741 132.557612,5.34168252 139.676793,5.34168252 C147.393388,5.34168252 150.148733,8.30868252 150.668302,12.2697944 L144.063259,12.2697944 C143.847828,11.0880462 142.83675,9.73850769 139.676793,9.73850769 C136.714164,9.73850769 135.11925,11.3920531 135.11925,14.2038923 C135.11925,17.0031021 136.714164,18.6566476 139.676793,18.6566476 C142.83675,18.6566476 143.878603,17.3071091 144.093129,16.034249" id="Fill-9"></path>
                                <path d="M166.880664,14.6194888 C166.522216,14.8639573 165.832474,14.9776217 165.245017,15.063321 L160.854931,15.7227545 C159.513466,15.929335 158.679802,16.4110552 158.679802,17.6216706 C158.679802,18.9432441 159.795879,19.3897825 161.370879,19.3897825 C163.550534,19.3897825 166.880664,18.3352301 166.880664,15.2635867 L166.880664,14.6194888 Z M173.34269,22.232293 L173.34269,22.4154189 L167.455448,22.4154189 C167.180276,22.1411811 166.997431,21.4880622 166.997431,20.7257895 L166.997431,20.1475448 C165.3645,22.1330622 162.562991,23.0541042 159.392172,23.0541042 C155.913595,23.0541042 152.434112,21.4573909 152.434112,17.6586566 C152.434112,14.0177895 154.618293,12.7250832 157.874198,12.4039364 L164.863034,11.709321 C166.062388,11.5812231 166.637172,11.2925517 166.637172,10.5158455 C166.637172,9.72650979 165.68131,9.18344685 163.334198,9.18344685 C161.559155,9.18344685 160.071957,9.68501329 159.949759,10.9019434 L153.599974,10.9019434 C153.76381,6.65937692 158.160233,5.34231399 163.280793,5.34231399 C168.887431,5.34231399 172.884672,6.41581049 172.884672,10.5158455 L172.884672,19.7650552 C172.884672,20.7095517 172.914543,21.7144888 173.34269,22.232293 L173.34269,22.232293 Z" id="Fill-10"></path>
                                <path d="M189.010591,10.8480881 C188.888392,9.49494126 187.288953,9.06554266 185.058608,9.06554266 C182.821927,9.06554266 181.895935,9.61131189 181.895935,10.3510322 C181.895935,11.0799273 182.349427,11.3505566 183.765116,11.5156406 L189.815289,12.192214 C193.884944,12.6414587 195.988565,13.7672769 195.988565,17.4577594 C195.988565,21.8690182 192.164211,23.0525706 185.493996,23.0525706 C179.442918,23.0525706 175.153306,21.9664448 174.960504,17.1366126 L181.489513,17.1366126 C181.611711,18.7658014 182.949556,19.2493259 185.62072,19.2493259 C188.472013,19.2493259 189.367228,18.6449203 189.367228,17.7680811 C189.367228,16.928228 188.797875,16.652186 187.374944,16.4564308 L181.756539,15.7257315 C177.809082,15.2214587 175.486409,14.1623958 175.486409,10.7109692 C175.486409,6.54508112 179.641151,5.34168252 185.133737,5.34168252 C190.79378,5.34168252 195.183866,6.65874545 195.348608,10.8489902 L189.012401,10.8489902 L189.010591,10.8480881 Z" id="Fill-11"></path>
                                <path d="M207.405685,17.8824671 C207.993142,17.8824671 208.938142,17.8635231 209.731978,17.7832364 L209.731978,22.414607 C209.011461,22.5201524 207.395728,22.6888448 206.025297,22.6888448 C200.979866,22.6888448 199.381332,21.3501315 199.381332,17.5919916 L199.381332,9.67337622 L196.592496,9.67337622 L196.592496,5.98108951 L199.381332,5.98108951 L199.381332,1.5148028 L205.38353,1.5148028 L205.38353,5.98108951 L209.745556,5.98108951 L209.745556,9.67337622 L205.38353,9.67337622 L205.38353,16.4580545 C205.38353,17.5694392 206.134823,17.8824671 207.407496,17.8824671 L207.405685,17.8824671 Z" id="Fill-12"></path>
                            </g>
                            <g id="Mark" transform="translate(62.734784, 0.000902)">
                                <path d="M5.61840517,78.3896014 L78.6576724,78.3896014 L78.6576724,5.59932168 L5.61840517,5.59932168 L5.61840517,78.3896014 Z M7.10542736e-15,83.9889231 L84.2760776,83.9889231 L84.2760776,-8.52651283e-14 L7.10542736e-15,-8.52651283e-14 L7.10542736e-15,83.9889231 Z" id="Fill-13"></path>
                                <polygon id="Fill-14" points="16.8552155 16.7966119 16.8552155 67.190507 67.4208621 67.190507"></polygon>
                                <polygon id="Fill-15" points="63.4476983 52.4312832 31.6661897 20.7568217 35.6380862 16.7966119 67.4214052 48.4710734"></polygon>
                                <polygon id="Fill-16" points="63.4476983 36.593421 47.5564914 20.7561902 51.5292931 16.7968825 67.4214052 32.6341133"></polygon>
                            </g>
                        </g>
                    </g>
                </g>
            </g>
        </g>
    </g>
</svg>